<svg width="34" height="34" viewBox="0 0 34 34" fill="none" xmlns="http://www.w3.org/2000/svg">
  <rect x="0.5" y="0.5" width="33" height="33" rx="7.5" fill="#2C2C2C"/>
  <rect x="0.5" y="0.5" width="33" height="33" rx="7.5" stroke="#2C2C2C"/>
  <path d="M16.9979 26.7826C17.2594 26.7826 17.5002 26.7526 17.7715 26.7324L18.3544 27.8373C18.4645 28.0584 18.6856 28.1789 18.9565 28.1386C19.2076 28.0884 19.3885 27.9076 19.4185 27.6363L19.5994 26.4209C20.0918 26.2906 20.5838 26.0994 21.0659 25.8886L21.9702 26.7024C22.1609 26.8833 22.4018 26.9232 22.6529 26.7826C22.8741 26.6622 22.9645 26.4209 22.9144 26.1599L22.6632 24.9547C23.0889 24.6576 23.4888 24.325 23.8585 23.9604L24.9835 24.4319C25.2346 24.5326 25.4656 24.4824 25.6564 24.2514C25.8274 24.0706 25.8471 23.8096 25.7065 23.5884L25.0538 22.544C25.3551 22.1219 25.5964 21.6697 25.8274 21.1876L27.0531 21.248C27.3136 21.2579 27.5348 21.1173 27.6252 20.8666C27.7054 20.615 27.6252 20.3742 27.4144 20.2134L26.4599 19.4502C26.5906 18.968 26.6914 18.4456 26.7312 17.903L27.8965 17.5417C28.1476 17.4513 28.3079 17.2602 28.3079 16.9889C28.3079 16.7279 28.1476 16.5372 27.8965 16.4467L26.7308 16.0752C26.6909 15.5326 26.5906 15.0303 26.4599 14.5383L27.4139 13.7647C27.6252 13.6143 27.7054 13.3833 27.6252 13.1322C27.5348 12.881 27.3136 12.74 27.0526 12.7503L25.8269 12.8004C25.5964 12.3183 25.3555 11.8662 25.0538 11.4444L25.7069 10.4C25.8471 10.1887 25.8269 9.92773 25.6564 9.74687C25.4656 9.51587 25.2346 9.45544 24.9835 9.56602L23.8585 10.0182C23.4832 9.66268 23.0837 9.33374 22.6628 9.03373L22.9144 7.83844C22.9645 7.56716 22.8741 7.3263 22.6529 7.20544C22.4018 7.07516 22.1609 7.0953 21.9702 7.29587L21.0659 8.08959C20.5894 7.88272 20.0994 7.70818 19.5994 7.56716L19.4185 6.35173C19.3885 6.0903 19.2076 5.90002 18.9565 5.85973C18.6852 5.81944 18.4645 5.93002 18.3539 6.15116L17.7711 7.25602C17.5002 7.23587 17.2589 7.21573 16.9979 7.21573C16.7266 7.21573 16.4858 7.23587 16.2042 7.25602L15.6321 6.15116C15.5215 5.93002 15.3004 5.81944 15.0192 5.85973C14.7681 5.90002 14.5971 6.09073 14.5572 6.35173L14.3862 7.5573C13.8863 7.70273 13.3964 7.88053 12.9196 8.08959L12.0158 7.29587C11.8148 7.0953 11.5739 7.07516 11.3326 7.20587C11.1119 7.32587 11.0215 7.56716 11.0712 7.83844L11.3228 9.03416C10.8967 9.33124 10.4936 9.66019 10.1172 10.0182L9.0025 9.56602C8.75136 9.45544 8.51007 9.51587 8.31936 9.74687C8.24136 9.83354 8.19416 9.94354 8.18509 10.0598C8.17602 10.176 8.2056 10.292 8.26921 10.3897L8.93221 11.4449C8.63093 11.8666 8.38964 12.3192 8.15864 12.8009L6.92307 12.7507C6.66164 12.7409 6.44093 12.8814 6.36079 13.1322C6.28021 13.3837 6.3505 13.6147 6.56136 13.7652L7.52564 14.5387C7.39536 15.0307 7.28479 15.533 7.25479 16.0756L6.08907 16.4472C5.8285 16.5273 5.6875 16.7184 5.6875 16.9897C5.6875 17.2606 5.8285 17.4517 6.0895 17.5422L7.25479 17.9137C7.28479 18.446 7.39536 18.968 7.52607 19.4506L6.56179 20.2134C6.3505 20.3742 6.28021 20.6154 6.36036 20.8662C6.44093 21.1173 6.66207 21.2579 6.92307 21.248L8.15864 21.188C8.39007 21.6697 8.63093 22.1223 8.92193 22.5436L8.27907 23.5884C8.12864 23.8096 8.14879 24.0706 8.31936 24.2514C8.51007 24.4824 8.75136 24.5326 9.0025 24.4323L10.1172 23.96C10.4892 24.3316 10.9011 24.6629 11.3228 24.9543L11.0716 26.1599C11.0215 26.4213 11.1119 26.6622 11.3331 26.7826C11.5838 26.9232 11.8251 26.8829 12.0158 26.7024L12.9098 25.8886C13.3919 26.0994 13.8839 26.2906 14.3862 26.4209L14.5572 27.6363C14.5971 27.9076 14.7681 28.0884 15.0192 28.1386C15.3004 28.1789 15.5215 28.0584 15.6321 27.8373L16.2042 26.7324C16.4755 26.7526 16.7271 26.7826 16.9979 26.7826ZM19.5192 16.3563C19.0469 15.0907 18.1229 14.3977 16.9679 14.3977C16.7969 14.3977 16.5964 14.4179 16.2749 14.4877L13.3919 9.56602C14.4668 9.03373 15.6921 8.7423 16.9979 8.7423C21.3775 8.7423 24.8125 12.0672 25.1241 16.3563H19.5192ZM8.84179 16.9992C8.84179 14.2066 10.1575 11.7457 12.2369 10.2594L15.1396 15.2112C14.5971 15.7739 14.3464 16.3863 14.3464 17.0394C14.3464 17.672 14.5872 18.2549 15.1396 18.8373L12.1666 23.699C10.1374 22.202 8.84179 19.7716 8.84179 16.9992ZM15.7624 17.0292C15.7624 16.3464 16.3452 15.8137 16.9881 15.8137C17.6708 15.8137 18.2335 16.3464 18.2335 17.0292C18.2335 17.702 17.6708 18.2549 16.9881 18.2549C16.3452 18.2549 15.7624 17.702 15.7624 17.0292ZM16.9979 25.256C15.6621 25.256 14.4166 24.9444 13.3216 24.4023L16.2745 19.5706C16.5861 19.6512 16.7974 19.6709 16.9679 19.6709C18.1328 19.6709 19.0572 18.9577 19.5192 17.6622H25.1236C24.8022 21.9307 21.3672 25.256 16.9979 25.256Z" fill="white"/>
</svg>
